<?xml version="1.0" encoding="UTF-8" standalone="no"?>
<svg
   viewBox="0 0 1280 640"
   width="1280"
   height="640"
   role="img"
   aria-label="webveil - account-free web search + fetch"
   style="color: #eef1f6"
   version="1.1"
   id="svg8"
   xmlns="http://www.w3.org/2000/svg"
   xmlns:svg="http://www.w3.org/2000/svg">
  <title
     id="title1">webveil - account-free web search + fetch</title>
  <defs
     id="defs4">
    <g
       id="mark"
       fill="none">
      <g
         stroke="#7C4DFF"
         stroke-width="27"
         stroke-linecap="butt"
         id="g2">
        <path
           d="M133.0 207.8 A80 80 0 0 1 72.8 70.1"
           id="path1" />
        <path
           d="M123.0 48.2 A80 80 0 0 1 183.2 185.9"
           id="path2" />
      </g>
      <path
         d="M96 22 L96 96 L160 164 L160 234"
         stroke="currentColor"
         stroke-width="17"
         stroke-linecap="butt"
         stroke-linejoin="miter"
         id="path3" />
    </g>
    <radialGradient
       id="glow"
       cx="18%"
       cy="82%"
       r="62%">
      <stop
         offset="0"
         stop-color="#7C4DFF"
         stop-opacity="0.16"
         id="stop3" />
      <stop
         offset="1"
         stop-color="#7C4DFF"
         stop-opacity="0"
         id="stop4" />
    </radialGradient>
  </defs>
  <rect
     width="1280"
     height="640"
     fill="#12141a"
     id="rect4" />
  <rect
     width="1280"
     height="640"
     fill="url(#glow)"
     id="rect5" />
  <g
     id="g7">
    <use
       href="#mark"
       opacity="0.05"
       transform="translate(898.80,-233.20) scale(2.4)"
       id="use5" />
    <use
       href="#mark"
       opacity="0.05"
       transform="translate(-134.40,361.60) scale(1.8)"
       id="use6" />
    <use
       href="#mark"
       opacity="0.05"
       transform="translate(1064.40,402.40) scale(1.2)"
       id="use7" />
  </g>
  <use
     href="#mark"
     transform="translate(102.2371,152.3144) scale(1.3100437)"
     id="use8" />
  <path
     d="M 469.78684,344.0163 456.3253,248.63168 h 24.03847 l 8.46153,79.03846 h 3.46154 l 12.30769,-79.03846 h 38.84616 l 12.30769,79.03846 h 3.46154 l 8.46154,-79.03846 h 24.03846 l -13.46154,95.38462 h -40.19231 l -12.30769,-79.03847 h -3.46154 l -12.30769,79.03847 z m 186.15377,2.6923 q -14.23077,0 -25.19231,-5.96153 -10.76923,-6.15385 -16.92308,-17.11539 -5.96153,-11.15385 -5.96153,-26.15385 v -2.30769 q 0,-15 5.96153,-25.96154 5.96154,-11.15384 16.73077,-17.11538 10.76923,-6.15385 25,-6.15385 14.03847,0 24.42308,6.34616 10.38462,6.15384 16.15385,17.30769 5.76923,10.96154 5.76923,25.57692 v 8.26923 h -69.42308 q 0.38462,9.8077 7.30769,15.96154 6.92308,6.15385 16.92308,6.15385 10.19231,0 15,-4.42308 4.80769,-4.42308 7.30769,-9.80769 l 19.8077,10.38461 q -2.69231,5 -7.88462,10.96154 -5,5.76923 -13.46154,10 -8.46154,4.03846 -21.53846,4.03846 z m -23.26923,-61.34615 h 44.61538 q -0.76923,-8.26923 -6.73077,-13.26923 -5.76923,-5 -15.1923,-5 -9.8077,0 -15.57693,5 -5.76923,5 -7.11538,13.26923 z m 148.07686,61.34615 q -12.88462,0 -19.8077,-4.42307 -6.92307,-4.42308 -10.19231,-9.8077 H 747.2867 V 344.0163 H 723.44054 V 209.40091 h 24.23077 v 50.19231 h 3.46154 q 2.11538,-3.46154 5.57692,-6.53846 3.65385,-3.07693 9.42308,-5 5.96154,-2.11539 14.61539,-2.11539 11.53846,0 21.34615,5.76923 9.80769,5.57693 15.76923,16.53847 5.96154,10.96153 5.96154,26.53846 v 3.07692 q 0,15.57692 -5.96154,26.53846 -5.96154,10.96154 -15.76923,16.73077 -9.80769,5.57692 -21.34615,5.57692 z m -7.3077,-21.15384 q 11.15385,0 18.65385,-7.11539 7.5,-7.30769 7.5,-21.15384 v -1.92308 q 0,-13.84615 -7.5,-20.96154 -7.30769,-7.30769 -18.65385,-7.30769 -11.15384,0 -18.65384,7.30769 -7.5,7.11539 -7.5,20.96154 v 1.92308 q 0,13.84615 7.5,21.15384 7.5,7.11539 18.65384,7.11539 z m 90.00012,18.46154 -30.38461,-95.38462 h 25.76923 l 22.11538,77.69231 h 3.46154 l 22.11539,-77.69231 h 25.76923 L 901.9022,344.0163 Z m 126.15393,2.6923 q -14.23077,0 -25.19231,-5.96153 -10.76923,-6.15385 -16.92308,-17.11539 -5.96154,-11.15385 -5.96154,-26.15385 v -2.30769 q 0,-15 5.96154,-25.96154 5.96154,-11.15384 16.73077,-17.11538 10.76923,-6.15385 25,-6.15385 14.03843,0 24.42303,6.34616 10.3847,6.15384 16.1539,17.30769 5.7692,10.96154 5.7692,25.57692 v 8.26923 h -69.42305 q 0.38461,9.8077 7.30769,15.96154 6.92308,6.15385 16.92308,6.15385 10.19228,0 14.99998,-4.42308 4.8077,-4.42308 7.3077,-9.80769 l 19.8077,10.38461 q -2.6923,5 -7.8846,10.96154 -5,5.76923 -13.4616,10 -8.4615,4.03846 -21.53841,4.03846 z m -23.26923,-61.34615 h 44.61534 q -0.7692,-8.26923 -6.7307,-13.26923 -5.76926,-5 -15.19234,-5 -9.80769,0 -15.57692,5 -5.76923,5 -7.11538,13.26923 z m 90.76914,58.65385 v -95.38462 h 24.2308 v 95.38462 z m 12.1154,-106.53847 q -6.5384,0 -11.1538,-4.23077 -4.4231,-4.23076 -4.4231,-11.15384 0,-6.92308 4.4231,-11.15385 4.6154,-4.23077 11.1538,-4.23077 6.7308,0 11.1539,4.23077 4.423,4.23077 4.423,11.15385 0,6.92308 -4.423,11.15384 -4.4231,4.23077 -11.1539,4.23077 z m 39.0386,106.53847 V 209.40091 h 24.2307 V 344.0163 Z"
     id="wordmark"
     style="font-size:192.308px;font-family:SpaceGroteskWV;letter-spacing:0px;fill:#eef1f6"
     aria-label="webveil" />
  <rect
     x="456.3250"
     y="366.7083"
     width="120.0"
     height="6.0"
     fill="#7C4DFF"
     id="rect8" />
  <path
     d="m 463.2499,433.29154 q -1.97328,0 -3.53701,-0.67017 -1.56373,-0.7074 -2.49452,-2.01051 -0.89356,-1.34035 -0.89356,-3.23916 0,-1.89882 0.89356,-3.1647 0.93079,-1.30311 2.53175,-1.93605 1.6382,-0.67017 3.72317,-0.67017 h 5.06352 v -1.04248 q 0,-1.30311 -0.8191,-2.12221 -0.8191,-0.85633 -2.60622,-0.85633 -1.74989,0 -2.60622,0.8191 -0.85633,0.78186 -1.11695,2.04774 l -4.31888,-1.45204 q 0.44678,-1.4148 1.41481,-2.56898 1.00525,-1.19142 2.64345,-1.89882 1.67542,-0.74463 4.05825,-0.74463 3.64871,0 5.77092,1.82435 2.1222,1.82435 2.1222,5.2869 v 6.88787 q 0,1.11695 1.04249,1.11695 h 1.48927 v 3.87209 h -3.12746 q -1.37758,0 -2.27114,-0.67017 -0.89356,-0.67017 -0.89356,-1.78712 v -0.0372 h -0.7074 q -0.14893,0.44678 -0.67017,1.19141 -0.52124,0.70741 -1.6382,1.26588 -1.11695,0.55848 -3.053,0.55848 z m 0.8191,-3.79764 q 1.97328,0 3.20193,-1.07971 1.26588,-1.11696 1.26588,-2.94131 v -0.37232 h -4.72843 q -1.30311,0 -2.04774,0.55848 -0.74464,0.55847 -0.74464,1.56373 0,1.00526 0.78187,1.6382 0.78186,0.63293 2.27113,0.63293 z m 23.66977,3.79764 q -2.68068,0 -4.87735,-1.11695 -2.15944,-1.11695 -3.42532,-3.23916 -1.26587,-2.12221 -1.26587,-5.13798 v -0.52124 q 0,-3.01577 1.26587,-5.13797 1.26588,-2.12221 3.42532,-3.23916 2.19667,-1.11695 4.87735,-1.11695 2.64345,0 4.54227,0.93079 1.89882,0.93079 3.053,2.56899 1.19141,1.60096 1.56373,3.6487 l -4.54227,0.96803 q -0.14892,-1.11695 -0.67017,-2.01051 -0.52124,-0.89357 -1.48927,-1.41481 -0.93079,-0.52124 -2.34559,-0.52124 -1.41481,0 -2.56899,0.63294 -1.11695,0.5957 -1.78712,1.82435 -0.63294,1.19141 -0.63294,2.9413 v 0.37232 q 0,1.74989 0.63294,2.97854 0.67017,1.19141 1.78712,1.82435 1.15418,0.59571 2.56899,0.59571 2.1222,0 3.20192,-1.07972 1.11695,-1.11695 1.41481,-2.90407 l 4.54227,1.07971 q -0.48402,1.97328 -1.67543,3.61148 -1.15418,1.60096 -3.053,2.53176 -1.89882,0.93079 -4.54227,0.93079 z m 22.2178,0 q -2.68069,0 -4.87736,-1.11695 -2.15943,-1.11695 -3.42531,-3.23916 -1.26588,-2.12221 -1.26588,-5.13798 v -0.52124 q 0,-3.01577 1.26588,-5.13797 1.26588,-2.12221 3.42531,-3.23916 2.19667,-1.11695 4.87736,-1.11695 2.64345,0 4.54226,0.93079 1.89882,0.93079 3.053,2.56899 1.19142,1.60096 1.56374,3.6487 l -4.54227,0.96803 q -0.14893,-1.11695 -0.67017,-2.01051 -0.52125,-0.89357 -1.48927,-1.41481 -0.93079,-0.52124 -2.3456,-0.52124 -1.4148,0 -2.56899,0.63294 -1.11695,0.5957 -1.78712,1.82435 -0.63294,1.19141 -0.63294,2.9413 v 0.37232 q 0,1.74989 0.63294,2.97854 0.67017,1.19141 1.78712,1.82435 1.15419,0.59571 2.56899,0.59571 2.12221,0 3.20193,-1.07972 1.11695,-1.11695 1.4148,-2.90407 l 4.54227,1.07971 q -0.48401,1.97328 -1.67543,3.61148 -1.15418,1.60096 -3.053,2.53176 -1.89881,0.93079 -4.54226,0.93079 z m 22.32948,0 q -2.75515,0 -4.95182,-1.11695 -2.19667,-1.11695 -3.46254,-3.23916 -1.26588,-2.12221 -1.26588,-5.10074 v -0.59571 q 0,-2.97854 1.26588,-5.10074 1.26587,-2.12221 3.46254,-3.23916 2.19667,-1.11695 4.95182,-1.11695 2.75515,0 4.95182,1.11695 2.19667,1.11695 3.46255,3.23916 1.26587,2.1222 1.26587,5.10074 v 0.59571 q 0,2.97853 -1.26587,5.10074 -1.26588,2.12221 -3.46255,3.23916 -2.19667,1.11695 -4.95182,1.11695 z m 0,-4.16995 q 2.15944,0 3.57424,-1.37758 1.41481,-1.4148 1.41481,-4.02102 v -0.37232 q 0,-2.60622 -1.41481,-3.98379 -1.37757,-1.4148 -3.57424,-1.4148 -2.15944,0 -3.57424,1.4148 -1.41481,1.37757 -1.41481,3.98379 v 0.37232 q 0,2.60622 1.41481,4.02102 1.4148,1.37758 3.57424,1.37758 z m 21.43589,3.94656 q -2.15943,0 -3.79763,-0.96803 -1.60096,-1.00525 -2.49452,-2.75514 -0.89356,-1.74989 -0.89356,-4.02103 v -11.02058 h 4.69119 v 10.64827 q 0,2.08497 1.00526,3.12746 1.04248,1.04249 2.9413,1.04249 2.15944,0 3.35085,-1.41481 1.19142,-1.45203 1.19142,-4.02102 v -9.38239 h 4.69119 v 18.46692 h -4.61673 v -2.42006 h -0.67017 q -0.44678,0.9308 -1.67543,1.82436 -1.22864,0.89356 -3.72317,0.89356 z m 16.29791,-0.29786 v -18.46692 h 4.61674 v 2.42006 h 0.67017 q 0.44678,-0.96802 1.67542,-1.82435 1.22865,-0.89356 3.72317,-0.89356 2.15944,0 3.7604,1.00525 1.6382,0.96803 2.53176,2.71792 0.89356,1.71266 0.89356,4.02102 v 11.02058 h -4.69119 v -10.64826 q 0,-2.08498 -1.04249,-3.12747 -1.00526,-1.04248 -2.90407,-1.04248 -2.15944,0 -3.35086,1.45203 -1.19141,1.41481 -1.19141,3.9838 v 9.38238 z m 29.88749,0 q -1.82435,0 -2.97854,-1.11695 -1.11695,-1.15418 -1.11695,-3.053 v -10.42487 h -4.61673 v -3.8721 h 4.61673 v -5.73368 h 4.6912 v 5.73368 h 5.06351 v 3.8721 h -5.06351 v 9.60578 q 0,1.11695 1.04248,1.11695 h 3.57425 v 3.87209 z m 9.48449,-7.37187 V 421.154 h 11.02059 v 4.24442 z m 18.79246,7.37187 v -14.59482 h -4.6912 v -3.8721 h 4.6912 v -3.42532 q 0,-1.89881 1.11695,-3.01576 1.15418,-1.15419 2.97854,-1.15419 h 4.84012 v 3.8721 h -3.20193 q -1.04249,0 -1.04249,1.11695 v 2.60622 h 4.84012 v 3.8721 h -4.84012 v 14.59482 z m 13.58004,0 v -18.46692 h 4.61673 v 2.08498 h 0.67017 q 0.40955,-1.11696 1.34034,-1.6382 0.96803,-0.52124 2.23391,-0.52124 h 2.2339 v 4.16995 h -2.30837 q -1.78712,0 -2.9413,0.96802 -1.15419,0.93079 -1.15419,2.90407 v 10.49934 z m 22.88797,0.52125 q -2.75515,0 -4.87736,-1.15418 -2.08497,-1.19142 -3.27639,-3.31363 -1.15418,-2.15943 -1.15418,-5.06351 v -0.44678 q 0,-2.90407 1.15418,-5.02628 1.15419,-2.15944 3.23916,-3.31362 2.08498,-1.19141 4.84012,-1.19141 2.71792,0 4.72843,1.22864 2.01051,1.19142 3.12746,3.35086 1.11695,2.1222 1.11695,4.95181 v 1.60097 h -13.44064 q 0.0745,1.89881 1.4148,3.09023 1.34035,1.19141 3.27639,1.19141 1.97328,0 2.90408,-0.85633 0.93079,-0.85633 1.4148,-1.89881 l 3.83487,2.01051 q -0.52125,0.96802 -1.5265,2.1222 -0.96803,1.11695 -2.60622,1.93605 -1.6382,0.78187 -4.16995,0.78187 z m -4.50504,-11.87691 h 8.63776 q -0.14893,-1.60097 -1.30311,-2.56899 -1.11695,-0.96803 -2.94131,-0.96803 -1.89881,0 -3.01577,0.96803 -1.11695,0.96802 -1.37757,2.56899 z m 26.38771,11.87691 q -2.75514,0 -4.87735,-1.15418 -2.08498,-1.19142 -3.27639,-3.31363 -1.15418,-2.15943 -1.15418,-5.06351 v -0.44678 q 0,-2.90407 1.15418,-5.02628 1.15418,-2.15944 3.23916,-3.31362 2.08497,-1.19141 4.84012,-1.19141 2.71791,0 4.72843,1.22864 2.01051,1.19142 3.12746,3.35086 1.11695,2.1222 1.11695,4.95181 v 1.60097 H 681.9927 q 0.0745,1.89881 1.41481,3.09023 1.34034,1.19141 3.27639,1.19141 1.97328,0 2.90407,-0.85633 0.93079,-0.85633 1.41481,-1.89881 l 3.83486,2.01051 q -0.52124,0.96802 -1.5265,2.1222 -0.96802,1.11695 -2.60622,1.93605 -1.63819,0.78187 -4.16995,0.78187 z m -4.50503,-11.87691 h 8.63775 q -0.14893,-1.60097 -1.30311,-2.56899 -1.11695,-0.96803 -2.9413,-0.96803 -1.89882,0 -3.01577,0.96803 -1.11695,0.96802 -1.37757,2.56899 z m 29.31945,11.35566 -2.60622,-18.46692 h 4.65397 l 1.63819,15.30223 h 0.67017 l 2.38283,-15.30223 h 7.5208 l 2.38283,15.30223 h 0.67017 l 1.6382,-15.30223 h 4.65396 l -2.60622,18.46692 h -7.78142 l -2.38283,-15.30222 h -0.67017 l -2.38283,15.30222 z m 36.44027,0.52125 q -2.75515,0 -4.87736,-1.15418 -2.08497,-1.19142 -3.27639,-3.31363 -1.15418,-2.15943 -1.15418,-5.06351 v -0.44678 q 0,-2.90407 1.15418,-5.02628 1.15419,-2.15944 3.23916,-3.31362 2.08498,-1.19141 4.84012,-1.19141 2.71792,0 4.72843,1.22864 2.01051,1.19142 3.12746,3.35086 1.11695,2.1222 1.11695,4.95181 v 1.60097 h -13.44064 q 0.0745,1.89881 1.4148,3.09023 1.34035,1.19141 3.27639,1.19141 1.97328,0 2.90408,-0.85633 0.93079,-0.85633 1.4148,-1.89881 l 3.83487,2.01051 q -0.52125,0.96802 -1.5265,2.1222 -0.96803,1.11695 -2.60622,1.93605 -1.6382,0.78187 -4.16995,0.78187 z m -4.50504,-11.87691 h 8.63776 q -0.14893,-1.60097 -1.30311,-2.56899 -1.11695,-0.96803 -2.94131,-0.96803 -1.89881,0 -3.01577,0.96803 -1.11695,0.96802 -1.37757,2.56899 z m 29.06841,11.87691 q -2.49452,0 -3.83487,-0.85633 -1.34034,-0.85633 -1.97328,-1.89882 h -0.67017 v 2.2339 h -4.61673 V 406.7081 h 4.6912 v 9.71748 h 0.67017 q 0.40955,-0.67017 1.07972,-1.26588 0.7074,-0.59571 1.82435,-0.96802 1.15418,-0.40955 2.82961,-0.40955 2.2339,0 4.13272,1.11695 1.89882,1.07972 3.053,3.20192 1.15418,2.12221 1.15418,5.13798 v 0.59571 q 0,3.01576 -1.15418,5.13797 -1.15418,2.12221 -3.053,3.23916 -1.89882,1.07972 -4.13272,1.07972 z m -1.4148,-4.09549 q 2.15943,0 3.61147,-1.37757 1.45204,-1.41481 1.45204,-4.09549 v -0.37232 q 0,-2.68068 -1.45204,-4.05825 -1.4148,-1.41481 -3.61147,-1.41481 -2.15944,0 -3.61148,1.41481 -1.45204,1.37757 -1.45204,4.05825 v 0.37232 q 0,2.68068 1.45204,4.09549 1.45204,1.37757 3.61148,1.37757 z m 32.00016,4.09549 q -3.61147,0 -5.91984,-1.56373 -2.30836,-1.56373 -2.79237,-4.46781 l 4.31887,-1.11695 q 0.26063,1.30311 0.85633,2.04774 0.63294,0.74464 1.5265,1.07972 0.9308,0.29786 2.01051,0.29786 1.6382,0 2.42007,-0.55848 0.78186,-0.5957 0.78186,-1.45203 0,-0.85633 -0.74463,-1.30311 -0.74464,-0.48402 -2.38283,-0.78187 l -1.04249,-0.18616 q -1.93605,-0.37231 -3.53701,-1.00525 -1.60096,-0.67017 -2.56899,-1.82436 -0.96802,-1.15418 -0.96802,-2.97853 0,-2.75515 2.01051,-4.20719 2.01051,-1.48926 5.2869,-1.48926 3.09023,0 5.13798,1.37757 2.04774,1.37757 2.68068,3.61147 l -4.35611,1.34035 q -0.29785,-1.41481 -1.22865,-2.01052 -0.89356,-0.5957 -2.2339,-0.5957 -1.34034,0 -2.04774,0.48401 -0.70741,0.44678 -0.70741,1.26588 0,0.89356 0.74464,1.34034 0.74463,0.40955 2.01051,0.63294 l 1.04249,0.18616 q 2.08497,0.37231 3.7604,1.00525 1.71266,0.59571 2.68068,1.74989 1.00526,1.11695 1.00526,3.053 0,2.90407 -2.12221,4.50504 -2.08497,1.56373 -5.62199,1.56373 z m 20.65406,0 q -2.75514,0 -4.87735,-1.15418 -2.08498,-1.19142 -3.27639,-3.31363 -1.15418,-2.15943 -1.15418,-5.06351 v -0.44678 q 0,-2.90407 1.15418,-5.02628 1.15418,-2.15944 3.23916,-3.31362 2.08497,-1.19141 4.84012,-1.19141 2.71791,0 4.72842,1.22864 2.01052,1.19142 3.12747,3.35086 1.11695,2.1222 1.11695,4.95181 v 1.60097 h -13.44065 q 0.0745,1.89881 1.41481,3.09023 1.34034,1.19141 3.27639,1.19141 1.97328,0 2.90407,-0.85633 0.93079,-0.85633 1.41481,-1.89881 l 3.83486,2.01051 q -0.52124,0.96802 -1.5265,2.1222 -0.96802,1.11695 -2.60622,1.93605 -1.63819,0.78187 -4.16995,0.78187 z m -4.50503,-11.87691 h 8.63775 q -0.14893,-1.60097 -1.30311,-2.56899 -1.11695,-0.96803 -2.9413,-0.96803 -1.89882,0 -3.01577,0.96803 -1.11695,0.96802 -1.37757,2.56899 z m 23.70704,11.87691 q -1.97328,0 -3.53701,-0.67017 -1.56373,-0.7074 -2.49453,-2.01051 -0.89356,-1.34035 -0.89356,-3.23916 0,-1.89882 0.89356,-3.1647 0.9308,-1.30311 2.53176,-1.93605 1.6382,-0.67017 3.72317,-0.67017 h 5.06351 v -1.04248 q 0,-1.30311 -0.8191,-2.12221 -0.81909,-0.85633 -2.60621,-0.85633 -1.74989,0 -2.60622,0.8191 -0.85633,0.78186 -1.11695,2.04774 l -4.31888,-1.45204 q 0.44678,-1.4148 1.4148,-2.56898 1.00526,-1.19142 2.64345,-1.89882 1.67543,-0.74463 4.05826,-0.74463 3.64871,0 5.77091,1.82435 2.12221,1.82435 2.12221,5.2869 v 6.88787 q 0,1.11695 1.04249,1.11695 h 1.48927 v 3.87209 h -3.12747 q -1.37757,0 -2.27113,-0.67017 -0.89356,-0.67017 -0.89356,-1.78712 v -0.0372 h -0.7074 q -0.14893,0.44678 -0.67018,1.19141 -0.52124,0.70741 -1.63819,1.26588 -1.11695,0.55848 -3.053,0.55848 z m 0.8191,-3.79764 q 1.97328,0 3.20192,-1.07971 1.26588,-1.11696 1.26588,-2.94131 v -0.37232 h -4.72842 q -1.30311,0 -2.04775,0.55848 -0.74463,0.55847 -0.74463,1.56373 0,1.00526 0.78186,1.6382 0.78187,0.63293 2.27114,0.63293 z m 15.36708,3.27639 v -18.46692 h 4.61673 v 2.08498 h 0.67017 q 0.40955,-1.11696 1.34034,-1.6382 0.96803,-0.52124 2.2339,-0.52124 h 2.23391 v 4.16995 h -2.30837 q -1.78712,0 -2.9413,0.96802 -1.15419,0.93079 -1.15419,2.90407 v 10.49934 z m 23.14859,0.52125 q -2.68068,0 -4.87735,-1.11695 -2.15944,-1.11695 -3.42532,-3.23916 -1.26588,-2.12221 -1.26588,-5.13798 v -0.52124 q 0,-3.01577 1.26588,-5.13797 1.26588,-2.12221 3.42532,-3.23916 2.19667,-1.11695 4.87735,-1.11695 2.64345,0 4.54227,0.93079 1.89881,0.93079 3.05299,2.56899 1.19142,1.60096 1.56374,3.6487 l -4.54227,0.96803 q -0.14893,-1.11695 -0.67017,-2.01051 -0.52125,-0.89357 -1.48927,-1.41481 -0.93079,-0.52124 -2.3456,-0.52124 -1.4148,0 -2.56898,0.63294 -1.11696,0.5957 -1.78713,1.82435 -0.63293,1.19141 -0.63293,2.9413 v 0.37232 q 0,1.74989 0.63293,2.97854 0.67017,1.19141 1.78713,1.82435 1.15418,0.59571 2.56898,0.59571 2.12221,0 3.20193,-1.07972 1.11695,-1.11695 1.4148,-2.90407 l 4.54227,1.07971 q -0.48401,1.97328 -1.67543,3.61148 -1.15418,1.60096 -3.05299,2.53176 -1.89882,0.93079 -4.54227,0.93079 z m 13.54282,-0.52125 V 406.7081 h 4.69119 v 9.8664 h 0.67017 q 0.29785,-0.5957 0.93079,-1.19141 0.63294,-0.59571 1.67543,-0.96802 1.07972,-0.40955 2.71791,-0.40955 2.15944,0 3.76041,1.00525 1.63819,0.96803 2.53175,2.71792 0.89356,1.71266 0.89356,4.02102 v 11.02058 h -4.69119 v -10.64826 q 0,-2.08498 -1.04249,-3.12747 -1.00526,-1.04248 -2.90407,-1.04248 -2.15944,0 -3.35086,1.45203 -1.19141,1.41481 -1.19141,3.9838 v 9.38238 z m 39.93046,-5.24967 v -5.65921 h -5.58475 v -4.24442 h 5.58475 v -5.65922 h 4.39334 v 5.65922 h 5.58476 v 4.24442 h -5.58476 v 5.65921 z m 29.65461,5.24967 v -14.59482 h -4.6912 v -3.8721 h 4.6912 v -3.42532 q 0,-1.89881 1.11695,-3.01576 1.15418,-1.15419 2.97854,-1.15419 h 4.84012 v 3.8721 h -3.20193 q -1.04249,0 -1.04249,1.11695 v 2.60622 h 4.84012 v 3.8721 h -4.84012 v 14.59482 z m 21.39869,0.52125 q -2.75515,0 -4.87736,-1.15418 -2.08497,-1.19142 -3.27639,-3.31363 -1.15418,-2.15943 -1.15418,-5.06351 v -0.44678 q 0,-2.90407 1.15418,-5.02628 1.15419,-2.15944 3.23916,-3.31362 2.08498,-1.19141 4.84012,-1.19141 2.71792,0 4.72843,1.22864 2.01051,1.19142 3.12746,3.35086 1.11695,2.1222 1.11695,4.95181 v 1.60097 h -13.44064 q 0.0745,1.89881 1.4148,3.09023 1.34035,1.19141 3.27639,1.19141 1.97328,0 2.90408,-0.85633 0.93079,-0.85633 1.4148,-1.89881 l 3.83487,2.01051 q -0.52125,0.96802 -1.5265,2.1222 -0.96803,1.11695 -2.60622,1.93605 -1.6382,0.78187 -4.16995,0.78187 z m -4.50504,-11.87691 h 8.63776 q -0.14893,-1.60097 -1.30311,-2.56899 -1.11695,-0.96803 -2.94131,-0.96803 -1.89881,0 -3.01577,0.96803 -1.11695,0.96802 -1.37757,2.56899 z m 24.45163,11.35566 q -1.8244,0 -2.9785,-1.11695 -1.117,-1.15418 -1.117,-3.053 v -10.42487 h -4.61673 v -3.8721 h 4.61673 v -5.73368 h 4.6912 v 5.73368 h 5.0635 v 3.8721 h -5.0635 v 9.60578 q 0,1.11695 1.0425,1.11695 h 3.5742 v 3.87209 z m 18.3084,0.52125 q -2.6807,0 -4.8773,-1.11695 -2.1595,-1.11695 -3.4254,-3.23916 -1.2658,-2.12221 -1.2658,-5.13798 v -0.52124 q 0,-3.01577 1.2658,-5.13797 1.2659,-2.12221 3.4254,-3.23916 2.1966,-1.11695 4.8773,-1.11695 2.6435,0 4.5423,0.93079 1.8988,0.93079 3.053,2.56899 1.1914,1.60096 1.5637,3.6487 l -4.5423,0.96803 q -0.1489,-1.11695 -0.6701,-2.01051 -0.5213,-0.89357 -1.4893,-1.41481 -0.9308,-0.52124 -2.3456,-0.52124 -1.4148,0 -2.569,0.63294 -1.1169,0.5957 -1.7871,1.82435 -0.6329,1.19141 -0.6329,2.9413 v 0.37232 q 0,1.74989 0.6329,2.97854 0.6702,1.19141 1.7871,1.82435 1.1542,0.59571 2.569,0.59571 2.1222,0 3.2019,-1.07972 1.117,-1.11695 1.4148,-2.90407 l 4.5423,1.07971 q -0.484,1.97328 -1.6754,3.61148 -1.1542,1.60096 -3.053,2.53176 -1.8988,0.93079 -4.5423,0.93079 z m 13.5429,-0.52125 V 406.7081 h 4.6912 v 9.8664 h 0.6701 q 0.2979,-0.5957 0.9308,-1.19141 0.633,-0.59571 1.6754,-0.96802 1.0798,-0.40955 2.718,-0.40955 2.1594,0 3.7604,1.00525 1.6382,0.96803 2.5317,2.71792 0.8936,1.71266 0.8936,4.02102 v 11.02058 h -4.6912 v -10.64826 q 0,-2.08498 -1.0425,-3.12747 -1.0053,-1.04248 -2.9041,-1.04248 -2.1594,0 -3.3508,1.45203 -1.1914,1.41481 -1.1914,3.9838 v 9.38238 z"
     id="tagline"
     style="font-size:37.2317px;font-family:SpaceGroteskWV;letter-spacing:0.4px;fill:#8e97a8"
     aria-label="account-free web search + fetch" />
</svg>
